<svg xmlns="http://www.w3.org/2000/svg" width="2102.93" height="1623.183" viewBox="0 0 2102.93 1623.183">
  <g id="Group_52" data-name="Group 52" transform="translate(-213.859 -1652.506)">
    <g id="Path_72" data-name="Path 72" transform="translate(236.601 1916.774)" fill="#f1f1f1">
      <path d="M 872.7169799804688 1358.414916992188 L 866.1717529296875 1358.41455078125 L 859.6964721679688 1358.41455078125 C 792.1493530273438 1358.41455078125 737.200439453125 1357.564819335938 686.7688598632813 1355.740356445313 C 626.0036010742188 1353.5419921875 572.5843505859375 1349.925170898438 523.4593505859375 1344.683349609375 C 496.707275390625 1341.828857421875 470.8846435546875 1338.432739257813 446.7091064453125 1334.58984375 C 421.3112182617188 1330.552490234375 396.822021484375 1325.87744140625 373.9212036132813 1320.695190429688 C 350.0225219726563 1315.286743164063 327.0409545898438 1309.142211914063 305.6148986816406 1302.432006835938 C 283.3691101074219 1295.46484375 262.0699157714844 1287.659545898438 242.3091125488281 1279.233032226563 C 221.8749084472656 1270.519653320313 202.4325408935547 1260.86328125 184.5217437744141 1250.532470703125 C 175.3549041748047 1245.245361328125 166.3841094970703 1239.66357421875 157.8585815429688 1233.942260742188 C 149.2096405029297 1228.138061523438 140.76806640625 1222.02197265625 132.7685852050781 1215.764038085938 C 124.6583251953125 1209.419311523438 116.7675323486328 1202.7451171875 109.3156890869141 1195.927001953125 C 101.7649002075195 1189.018310546875 94.44647979736328 1181.761962890625 87.56385040283203 1174.35986328125 C 80.59332275390625 1166.86328125 73.86885070800781 1159.0009765625 67.57701110839844 1150.9912109375 C 61.20806121826172 1142.883056640625 55.09885025024414 1134.390380859375 49.41937637329102 1125.7490234375 C 43.67279815673828 1117.005615234375 38.20069122314453 1107.858764648438 33.15516662597656 1098.56201171875 C 28.0520076751709 1089.159301757813 23.23858642578125 1079.33349609375 18.84858703613281 1069.357788085938 C 14.41042900085449 1059.27197265625 10.27727127075195 1048.743286132813 6.564639568328857 1038.064086914063 C 2.812271118164063 1027.271484375 -0.6185184717178345 1016.015686035156 -3.632202625274658 1004.609313964844 C -6.677202701568604 993.0859375 -9.383518218994141 981.0787963867188 -11.67667675018311 968.9214477539063 C -13.99246597290039 956.643310546875 -15.95299243927002 943.8609008789063 -17.50351905822754 930.9290771484375 C -19.06904411315918 917.8724975585938 -20.26141357421875 904.2906494140625 -21.04746627807617 890.5604248046875 C -21.84088706970215 876.7019653320313 -22.24325561523438 862.2966918945313 -22.24325561523438 847.7443237304688 C -22.24325561523438 833.1985473632813 -21.79220199584961 818.4688110351563 -20.90272903442383 803.96484375 C -20.02194023132324 789.6054077148438 -18.68772888183594 775.076171875 -16.93667602539063 760.7811889648438 C -15.20246601104736 746.6248779296875 -13.01272869110107 732.3135375976563 -10.42799186706543 718.2451171875 C -7.867729187011719 704.30908203125 -4.850623607635498 690.2332763671875 -1.460360527038574 676.4085693359375 C 1.898849964141846 662.7098388671875 5.715428829193115 648.886962890625 9.883323669433594 635.3237915039063 C 14.01437664031982 621.8793334960938 18.6025333404541 608.3269653320313 23.51963996887207 595.04248046875 C 33.23832321166992 568.7872314453125 44.61648178100586 542.5632934570313 57.33858871459961 517.0988159179688 C 69.87068939208984 492.0146179199219 83.99884796142578 467.0819702148438 99.33042907714844 442.9940795898438 C 114.4643783569336 419.2172241210938 131.1185913085938 395.7167053222656 148.8304290771484 373.1453857421875 C 166.3538513183594 350.8140869140625 185.3101654052734 328.8856506347656 205.1720123291016 307.9698791503906 C 224.8733215332031 287.2232971191406 245.9072723388672 267.0075073242188 267.6896362304688 247.8846130371094 C 289.3551635742188 228.8638153076172 312.2430725097656 210.5011901855469 335.7167358398438 193.3067169189453 C 359.1325378417969 176.1548614501953 383.6496276855469 159.7856597900391 408.5872802734375 144.6535491943359 C 433.5367431640625 129.5146026611328 459.4591064453125 115.2790756225586 485.6346435546875 102.3422393798828 C 511.8993835449219 89.3614501953125 539.0028076171875 77.39960479736328 566.1917724609375 66.78960418701172 C 593.5517578125 56.1130256652832 621.6117553710938 46.56539535522461 649.592529296875 38.41250228881836 C 677.8251953125 30.18618392944336 706.6177978515625 23.19329071044922 735.170166015625 17.62776374816895 C 764.0514526367188 11.99802684783936 793.3519897460938 7.699342727661133 822.258056640625 4.851447582244873 C 851.562255859375 1.9640793800354 881.146728515625 0.5001319646835327 910.1898803710938 0.5001319646835327 C 968.0325317382813 0.5001319646835327 1030.344848632813 6.8851318359375 1095.396484375 19.47750091552734 C 1159.050170898438 31.79907989501953 1224.942749023438 49.98197555541992 1291.243896484375 73.52091979980469 C 1357.217529296875 96.94355010986328 1423.022827148438 125.4643402099609 1486.83203125 158.2906646728516 C 1551.448852539063 191.5327606201172 1613.501220703125 228.9290771484375 1671.265380859375 269.44091796875 C 1730.688354492188 311.1161804199219 1785.32275390625 355.9248657226563 1833.651733398438 402.6222229003906 C 1858.450439453125 426.5840759277344 1881.841186523438 451.3101196289063 1903.173828125 476.1138305664063 C 1914.01416015625 488.7177734375 1924.527221679688 501.5811767578125 1934.421752929688 514.346435546875 C 1944.434936523438 527.26513671875 1954.084106445313 540.4314575195313 1963.100952148438 553.4796142578125 C 1972.229858398438 566.6895751953125 1980.95751953125 580.1359252929688 1989.041748046875 593.4448852539063 C 1997.228881835938 606.9235229492188 2004.97802734375 620.626953125 2012.073852539063 634.17431640625 C 2019.261962890625 647.8983154296875 2025.975463867188 661.8359375 2032.027587890625 675.599609375 C 2038.159912109375 689.5462036132813 2043.780639648438 703.6948852539063 2048.733642578125 717.6530151367188 C 2053.753173828125 731.799072265625 2058.223876953125 746.1361694335938 2062.02197265625 760.2661743164063 C 2065.871826171875 774.5888061523438 2069.135986328125 789.0917358398438 2071.7236328125 803.3717041015625 C 2074.346923828125 817.8482666015625 2076.34716796875 832.4940795898438 2077.6689453125 846.9022216796875 C 2079.0087890625 861.5098876953125 2079.688232421875 876.2759399414063 2079.688232421875 890.7901611328125 C 2079.688232421875 905.1632690429688 2078.9736328125 919.3914184570313 2077.56396484375 933.0787963867188 C 2076.174560546875 946.5669555664063 2074.07177734375 959.9082641601563 2071.3134765625 972.7314453125 C 2068.596435546875 985.363525390625 2065.167236328125 997.8469848632813 2061.121337890625 1009.834838867188 C 2057.13720703125 1021.639343261719 2052.443603515625 1033.294067382813 2047.170654296875 1044.475341796875 C 2041.98046875 1055.481201171875 2036.083618164063 1066.336669921875 2029.644165039063 1076.740112304688 C 2023.308349609375 1086.975708007813 2016.269897460938 1097.060668945313 2008.7236328125 1106.71484375 C 2001.303100585938 1116.20849609375 1993.18359375 1125.552001953125 1984.591186523438 1134.4853515625 C 1976.14599609375 1143.265380859375 1967.006958007813 1151.895385742188 1957.428344726563 1160.135864257813 C 1948.019409179688 1168.230346679688 1937.921997070313 1176.175659179688 1927.4169921875 1183.751220703125 C 1917.105224609375 1191.1875 1906.111206054688 1198.476196289063 1894.740112304688 1205.414916992188 C 1883.586181640625 1212.220947265625 1871.756958007813 1218.881225585938 1859.580444335938 1225.210693359375 C 1847.645751953125 1231.414306640625 1835.04248046875 1237.474365234375 1822.121215820313 1243.222290039063 C 1809.467041015625 1248.851196289063 1796.151733398438 1254.339111328125 1782.545654296875 1259.533325195313 C 1769.233276367188 1264.615356445313 1755.267822265625 1269.5595703125 1741.037475585938 1274.22802734375 C 1713.554321289063 1283.24462890625 1683.919921875 1291.614135742188 1652.95751953125 1299.104614257813 C 1623.525146484375 1306.224853515625 1592.031005859375 1312.7587890625 1559.350463867188 1318.525146484375 C 1528.477294921875 1323.972290039063 1495.617797851563 1328.8974609375 1461.685424804688 1333.163818359375 C 1429.891967773438 1337.161499023438 1396.161499023438 1340.704833984375 1361.431518554688 1343.696166992188 C 1329.260986328125 1346.46728515625 1295.153564453125 1348.8564453125 1260.057006835938 1350.797729492188 C 1199.533081054688 1354.145629882813 1134.034912109375 1356.309326171875 1059.819580078125 1357.411987304688 C 992.342529296875 1358.414916992188 926.0133056640625 1358.414916992188 872.7169799804688 1358.414916992188 Z" stroke="none"/>
      <path d="M 910.18994140625 0.9998779296875 C 881.1630859375 0.9998779296875 851.5948486328125 2.4630126953125 822.3072509765625 5.348876953125 C 793.41650390625 8.1951904296875 764.1317138671875 12.491455078125 735.2659912109375 18.1182861328125 C 706.72802734375 23.680908203125 677.95068359375 30.67041015625 649.7325439453125 38.8922119140625 C 621.7657470703125 47.0411376953125 593.7198486328125 56.5838623046875 566.37353515625 67.255126953125 C 539.1981201171875 77.860107421875 512.1080322265625 89.815673828125 485.85595703125 102.7904052734375 C 459.693603515625 115.720703125 433.7838134765625 129.9493408203125 408.8468017578125 145.0809326171875 C 383.9212646484375 160.2054443359375 359.416259765625 176.56640625 336.0123291015625 193.7098388671875 C 312.5501708984375 210.8958740234375 289.674072265625 229.2490234375 268.0194091796875 248.2601318359375 C 246.248291015625 267.373291015625 225.2254638671875 287.5782470703125 205.53466796875 308.3140869140625 C 185.683349609375 329.218505859375 166.73779296875 351.1348876953125 149.2236328125 373.4541015625 C 131.52197265625 396.0125122070313 114.8773193359375 419.4996337890625 99.7523193359375 443.2625122070313 C 84.429931640625 467.3359375 70.3101806640625 492.2532958984375 57.78564453125 517.322265625 C 45.07177734375 542.7703857421875 33.700927734375 568.977783203125 23.9886474609375 595.2161865234375 C 19.0745849609375 608.49169921875 14.4896240234375 622.03515625 10.3612060546875 635.4706420898438 C 6.1962890625 649.0248413085938 2.38232421875 662.8383178710938 -0.974853515625 676.5277709960938 C -4.36279296875 690.343017578125 -7.377685546875 704.4090576171875 -9.9365234375 718.3353881835938 C -12.519287109375 732.3943481445313 -14.70751953125 746.6953735351563 -16.4404296875 760.8419799804688 C -18.190185546875 775.126953125 -19.5234375 789.6459350585938 -20.40380859375 803.9954223632813 C -21.29248046875 818.4893188476563 -21.7431640625 833.2085571289063 -21.7431640625 847.7443237304688 C -21.7431640625 862.2872314453125 -21.341064453125 876.6827392578125 -20.54833984375 890.53173828125 C -19.7626953125 904.251708984375 -18.571044921875 917.8233032226563 -17.0068359375 930.869384765625 C -15.4580078125 943.7901611328125 -13.4990234375 956.5617065429688 -11.185302734375 968.828857421875 C -8.89453125 980.974365234375 -6.190673828125 992.9696044921875 -3.148681640625 1004.4814453125 C -0.13818359375 1015.875671386719 3.28857421875 1027.119140625 7.036865234375 1037.89990234375 C 10.7451171875 1048.56640625 14.873291015625 1059.08251953125 19.3062744140625 1069.15625 C 23.690673828125 1079.11962890625 28.498046875 1088.932739257813 33.5946044921875 1098.3232421875 C 38.633544921875 1107.607788085938 44.0982666015625 1116.742797851563 49.8372802734375 1125.474365234375 C 55.5091552734375 1134.104125976563 61.60986328125 1142.585083007813 67.97021484375 1150.682006835938 C 74.2535400390625 1158.68115234375 80.9691162109375 1166.53271484375 87.929931640625 1174.019287109375 C 94.8035888671875 1181.411743164063 102.1123046875 1188.658325195313 109.653076171875 1195.557983398438 C 117.095703125 1202.367553710938 124.9764404296875 1209.033325195313 133.0767822265625 1215.3701171875 C 141.0667724609375 1221.62060546875 149.498291015625 1227.729614257813 158.1373291015625 1233.526977539063 C 166.6533203125 1239.241943359375 175.6143798828125 1244.817749023438 184.771484375 1250.099365234375 C 202.6649169921875 1260.420166015625 222.08935546875 1270.067260742188 242.505126953125 1278.773071289063 C 262.250732421875 1287.192993164063 283.534423828125 1294.992553710938 305.764404296875 1301.95458984375 C 327.177490234375 1308.660888671875 350.14599609375 1314.802001953125 374.031494140625 1320.20751953125 C 396.9217529296875 1325.387451171875 421.400390625 1330.060180664063 446.7874755859375 1334.095947265625 C 470.95458984375 1337.937744140625 496.7685546875 1341.33251953125 523.5123291015625 1344.186157226563 C 572.625732421875 1349.4267578125 626.0333251953125 1353.042724609375 686.7867431640625 1355.240600585938 C 737.2122802734375 1357.064819335938 792.1553955078125 1357.91455078125 859.6961669921875 1357.91455078125 L 866.170654296875 1357.91455078125 L 872.7152099609375 1357.914916992188 C 926.0096435546875 1357.914916992188 992.3367919921875 1357.914916992188 1059.810424804688 1356.912231445313 C 1134.01904296875 1355.8095703125 1199.5107421875 1353.646240234375 1260.02783203125 1350.298583984375 C 1295.11962890625 1348.357543945313 1329.2216796875 1345.968505859375 1361.38720703125 1343.197998046875 C 1396.110961914063 1340.207275390625 1429.834716796875 1336.664306640625 1461.6220703125 1332.667724609375 C 1495.546142578125 1328.402465820313 1528.397216796875 1323.478515625 1559.262573242188 1318.03271484375 C 1591.93310546875 1312.268310546875 1623.416748046875 1305.736450195313 1652.839111328125 1298.618530273438 C 1683.788818359375 1291.131225585938 1713.410400390625 1282.76513671875 1740.880981445313 1273.753051757813 C 1755.103881835938 1269.086669921875 1769.061767578125 1264.145385742188 1782.36669921875 1259.066162109375 C 1795.964599609375 1253.875122070313 1809.271240234375 1248.390625 1821.91748046875 1242.76513671875 C 1834.82958984375 1237.021484375 1847.423583984375 1230.965942382813 1859.349365234375 1224.766723632813 C 1871.515625 1218.442749023438 1883.335205078125 1211.788330078125 1894.479370117188 1204.988037109375 C 1905.83935546875 1198.055908203125 1916.82275390625 1190.774658203125 1927.124389648438 1183.345703125 C 1937.617797851563 1175.7783203125 1947.703857421875 1167.842041015625 1957.10205078125 1159.756958007813 C 1966.668823242188 1151.526489257813 1975.796264648438 1142.9072265625 1984.230712890625 1134.138549804688 C 1992.811279296875 1125.217529296875 2000.91943359375 1115.88720703125 2008.32958984375 1106.406982421875 C 2015.864624023438 1096.766967773438 2022.892822265625 1086.697021484375 2029.218872070313 1076.476928710938 C 2035.648559570313 1066.08935546875 2041.536254882813 1055.2509765625 2046.718383789063 1044.26220703125 C 2051.983154296875 1033.098022460938 2056.669677734375 1021.461181640625 2060.6474609375 1009.674865722656 C 2064.6875 997.704833984375 2068.111572265625 985.2398681640625 2070.82470703125 972.626220703125 C 2073.5791015625 959.8206787109375 2075.67919921875 946.497802734375 2077.06640625 933.0274658203125 C 2078.474365234375 919.35693359375 2079.188232421875 905.146484375 2079.188232421875 890.7901611328125 C 2079.188232421875 876.2908935546875 2078.509521484375 861.5404052734375 2077.1708984375 846.94775390625 C 2075.8505859375 832.5543212890625 2073.852294921875 817.9230346679688 2071.231689453125 803.4609375 C 2068.646484375 789.194580078125 2065.385498046875 774.7053833007813 2061.5390625 760.3959350585938 C 2057.744384765625 746.278564453125 2053.277587890625 731.9541015625 2048.26220703125 717.8201293945313 C 2043.313598632813 703.87353515625 2037.697509765625 689.7364501953125 2031.569946289063 675.8009033203125 C 2025.522216796875 662.0474853515625 2018.813842773438 648.1204223632813 2011.630737304688 634.4061889648438 C 2004.539916992188 620.8680419921875 1996.7958984375 607.174072265625 1988.614379882813 593.704345703125 C 1980.535400390625 580.40380859375 1971.813110351563 566.9659423828125 1962.689697265625 553.7637939453125 C 1953.678100585938 540.7230224609375 1944.034423828125 527.5640869140625 1934.026489257813 514.6527709960938 C 1924.13720703125 501.8941040039063 1913.62939453125 489.0374755859375 1902.794677734375 476.4398803710938 C 1881.472045898438 451.6477661132813 1858.092041015625 426.9327392578125 1833.304077148438 402.981689453125 C 1784.994140625 356.30224609375 1730.3798828125 311.5103759765625 1670.978271484375 269.85009765625 C 1613.232543945313 229.3511962890625 1551.199951171875 191.9666748046875 1486.603271484375 158.735107421875 C 1422.813842773438 125.9188232421875 1357.029296875 97.4072265625 1291.076416015625 73.991943359375 C 1224.799072265625 50.46142578125 1158.9306640625 32.28515625 1095.301513671875 19.968017578125 C 1030.28125 7.3817138671875 968.000732421875 0.9998779296875 910.18994140625 0.9998779296875 M 910.18994140625 -0.0001220703125 C 1380.492553710938 -0.0001220703125 2080.188232421875 420.4874877929688 2080.188232421875 890.7901611328125 C 2080.188232421875 1356.75830078125 1343.708374023438 1358.914794921875 872.7152099609375 1358.914794921875 C 868.333984375 1358.914794921875 864.0306396484375 1358.91455078125 859.6961669921875 1358.91455078125 C 389.3935546875 1358.91455078125 -22.7431640625 1318.046997070313 -22.7431640625 847.7443237304688 C -22.7431640625 377.4417114257813 439.886962890625 -0.0001220703125 910.18994140625 -0.0001220703125 Z" stroke="none" fill="#e1e1e1"/>
    </g>
    <g id="Group_46" data-name="Group 46" transform="translate(647.429 1652.506)">
      <g id="Group_29" data-name="Group 29" transform="translate(584.013 758.286)">
        <path id="Path_1" data-name="Path 1" d="M437.931,298.8c-6.674,7.7-11.3-19.4-11.3-19.4s-.979,15.307-5.592,16.389c-4.626.979-11.261-18.425-11.261-18.425s.5,10.243-4.587,10.243c-2.873,0-6.055-6.069-8.31-11.429l-.039-.116c-1.752-4.213-2.924-7.963-2.924-7.963s-11.223-24.532-6.146-41.411c0,0-9.174-32.237-14.818-45.482-5.63-13.361-14.817-29.712-14.817-29.712,2.01-1.366,4.175-3.028,6.52-4.883,6-4.806,13.207-11,22.664-17.523a179.755,179.755,0,0,1,40.058-20.525c2.41-.863,4.871-1.714,7.447-2.6,0,0-9.173,105.923-8.194,107.457,1.082,1.482,15.887,18.927,17.446,27.611C445.6,249.714,444.566,291.151,437.931,298.8Z" transform="translate(-358.137 -105.962)" fill="#353535"/>
        <path id="Path_2" data-name="Path 2" d="M396.842,254.73c-1.752-4.213-2.924-7.963-2.924-7.963s-11.223-24.532-6.146-41.411c0,0-9.174-32.237-14.818-45.482-5.63-13.361-14.817-29.712-14.817-29.712,2.01-1.366,4.175-3.028,6.52-4.883,6-4.806,13.207-11,22.664-17.523.683,24.442,3.956,81.391,9.5,93.541C396.817,201.3,391.8,228.072,396.842,254.73Z" transform="translate(-358.137 -84.629)" fill="#171717"/>
      </g>
      <path id="Path_3" data-name="Path 3" d="M747.951,825.892s7.176,55.712,4.1,147.785-17.381,254.778-17.381,254.778H719.309s-63.971-233.26-73.132-281.371c-9.239-48.033,10.243-82.345,10.243-82.345S596.546,778.323,577.1,747.1s-87.5-137.632-87.5-137.632L456.388,634.03s-8.181,55.79-16.376,96.183c-8.182,40.418-26.606,167.266-26.606,167.266,30.7,91.609,6.146,179.558-2.513,208.226-8.722,28.629-42.982,135.506-42.982,135.506l-4.612-.709-14.856-2.358s-14.328-290-15.306-335.55c-.335-13.593-.992-35.716-1.765-62.1C329.6,778.4,327.44,692.8,328.5,639.673c1.237-60.853,10.063-142.489,14.83-200.895.116-1.263.194-2.538.322-3.8.979-12.756,1.817-24.339,2.255-34.2.09-1.92.206-3.9.322-5.824.077-1.559.167-3.066.3-4.625,3.067-44.812,12.227-90.462,14.766-102.535l.038-.129a7.086,7.086,0,0,0,.464-2.113,1.27,1.27,0,0,1,.065-.425c.051-.283.09-.412.09-.412s9.29-4.3,25.872-13.129c10.308-5.489,23.437-12.691,38.9-21.7,40.393-23.527,67.514-41.952,67.514-41.952s21.491-45.5,36.837-78.235c12-25.563,24.313-53.045,29.106-63.83,9.534,1.752,18.862,3.646,27.959,5.566a598.745,598.745,0,0,0-29.453,56.7c-14.315,32.263-37.313,82.37-37.313,82.37,21.453,6.635,102.792,58.328,102.792,58.328C683.3,196.086,734.333,156.428,753.839,142.59c8.439,6.494,15.9,12.859,22.264,18.67-15.745,11.879-52.943,40.29-73.158,58.959-26.065,24.068-65.479,67.051-65.479,67.051,2.293,7.473,5.527,26.091,7.9,40.908,1.8,11.454,3.157,20.718,3.157,20.718a2.209,2.209,0,0,0-.245.27c-2.2,2.951-20.589,27.07-36.875,50.623-9.779,14.07-22.96,37.2-32.662,54.746-.7,1.3-1.379,2.641-2.036,3.84-5.373,9.741-9.342,17.188-10.527,19.456l-.116.322a2.692,2.692,0,0,1-.206.361l.129.18.026.116,1.443,2.77Z" transform="translate(-129.691 175.924)" fill="#38c35a"/>
      <path id="Path_4" data-name="Path 4" d="M387.817,81.842C375.86,133.032,353.8,292.258,349.28,345.587c-3.414,41-12.923,213.225-17.909,305.156-1.766-62.09-3.93-147.695-2.874-200.818,1.237-60.853,10.063-142.49,14.83-200.895.116-1.263.194-2.538.322-3.8.979-12.756,1.817-24.339,2.255-34.2.09-1.92.206-3.9.322-5.824.077-1.559.167-3.067.3-4.626,3.067-44.812,12.227-90.462,14.766-102.535l.038-.129a7.084,7.084,0,0,0,.464-2.113,1.27,1.27,0,0,1,.065-.425c.051-.283.09-.412.09-.412S371.235,90.668,387.817,81.842Z" transform="translate(-129.691 365.671)" fill="#147b2d"/>
      <path id="Path_5" data-name="Path 5" d="M689.876,733.158h-2.925S622.981,499.9,613.82,451.786c-9.239-48.033,10.243-82.345,10.243-82.345s-59.874-86.416-79.317-117.635-87.5-137.632-87.5-137.632l-33.216,24.558s-8.181,55.79-16.376,96.182c-8.182,40.419-26.607,167.266-26.607,167.266,30.7,91.609,6.146,179.558-2.512,208.226-8.723,28.629-42.982,135.506-42.982,135.506l-4.613-.708c13.09-46.578,38.653-140.686,44.67-186.825,8.208-62.76-6.132-145.981-6.132-145.981s2.719-27.276,10.887-91.969S414.5,139.6,414.5,139.6l40.921-32.044s29.995,36.141,64.422,78.776c34.363,42.622,136.137,177.69,136.137,177.69s-2.087,35.432-4.832,83.672c-2.732,48.291,15.023,137.954,23.862,188.435C681.347,672.137,687.7,712.349,689.876,733.158Z" transform="translate(-97.334 671.221)" fill="#147b2d"/>
      <path id="Path_6" data-name="Path 6" d="M429.032,106.952a2.185,2.185,0,0,0-.245.27c-2.2,2.951-20.589,27.07-36.876,50.623-9.779,14.07-22.96,37.2-32.662,54.746-.7,1.3-1.379,2.641-2.036,3.84-5.373,9.741-9.342,17.188-10.527,19.456,3.762-12.382,63.469-130.3,79.188-149.653C427.678,97.688,429.032,106.952,429.032,106.952Z" transform="translate(89.799 417.868)" fill="#147b2d"/>
      <path id="Path_7" data-name="Path 7" d="M683.725,81.614c-4.794,10.784-17.111,38.267-29.106,63.83-15.346,32.739-36.837,78.234-36.837,78.234S590.661,242.1,550.268,265.63c-15.552,9.032-28.707,16.286-39.079,21.775-16.5,8.8-25.692,13.052-25.692,13.052,1.83-12.885,6.661-64.616,28.965-103.849,0,0-65.479-18.953-102.3-15.887,0,0-16.608,59.011-11.867,115.986-2.9-.3-6.172-.631-9.689-.928-15.758-1.327-36.218-2.319-51.744-.5-3.221-15.874-18.039-89.895-20.331-125.8a374.38,374.38,0,0,1,2.59-73.132s50.12-22.02,147.85-30.2C528.634,61.154,611.572,68.343,683.725,81.614Z" transform="translate(-253.243 160.185)" fill="#e1e1e1"/>
      <path id="Path_8" data-name="Path 8" d="M516.935,221.283C508.741,266.8,503.1,314.335,503.1,314.335s4.626,24.081,3.119,60.918c-1.4,33.152-7.332,107.237-8.517,121.732a180.24,180.24,0,0,0-52,29.441c-4.007,3.118-7.525,6.03-10.72,8.607-2.422-5.437-39.671-90.977-20.357-127.595,0,0-5.643-47.582-6.133-84.419s4.587-98.7,4.587-98.7l-9.715-2.036-40.083,38.628s-.979-6.868-2.41-16.132c-2.422-15.307-6.107-37.249-8.645-45.495,0,0,39.413-42.983,65.479-67.051,20.216-18.67,57.413-47.08,73.158-58.959,15.552,14.328,24.816,25.692,26.078,29.3C520,111.3,525.117,175.711,516.935,221.283Z" transform="translate(155.556 263.904)" fill="#e1e1e1"/>
      <path id="Path_9" data-name="Path 9" d="M575.684,137.456c-19.507,13.838-70.543,53.5-129.682,126.255,0,0-81.339-51.693-102.792-58.328,0,0,23-50.108,37.313-82.37a598.68,598.68,0,0,1,29.453-56.7q8.563,1.836,16.8,3.8c27.792,6.545,52.35,13.993,71.1,21.736a335.9,335.9,0,0,1,67.579,37.983C569.022,132.354,572.436,134.918,575.684,137.456Z" transform="translate(48.465 181.058)" fill="#e1e1e1"/>
      <path id="Path_10" data-name="Path 10" d="M484.289,95.087s-22.02,59.14-33.268,101.517c-16.5,8.8-25.692,13.052-25.692,13.052,1.83-12.884,6.661-64.616,28.965-103.849,0,0-65.479-18.953-102.3-15.887,0,0-16.608,59.011-11.867,115.986-2.9-.3-6.172-.631-9.689-.928-5.115-25.563-15.23-89.895,2.435-132.774C332.871,72.2,424.956,70.9,484.289,95.087Z" transform="translate(-193.075 250.986)" fill="#a1a1a1"/>
      <path id="Path_11" data-name="Path 11" d="M437.723,418.253c-4.007,3.118-7.525,6.03-10.72,8.607-2.422-5.437-39.671-90.977-20.358-127.6,0,0-5.643-47.582-6.133-84.419s4.587-98.7,4.587-98.7l-9.715-2.036L355.3,152.743s-.979-6.867-2.41-16.131c15.088-16,36.566-38.357,40.986-40.921,7-4.1,34.956-13.31,34.956-13.31-7.847,35.806,0,212.491,0,212.491C421.836,322.7,432.234,388.052,437.723,418.253Z" transform="translate(163.53 372.077)" fill="#a1a1a1"/>
      <path id="Path_12" data-name="Path 12" d="M488.37,126.323c-19.314,2.242-56.421,4.059-89.161-8.852-35.6-13.993-46.423-39.491-49.515-50.868,27.792,6.545,52.35,13.993,71.1,21.736A335.892,335.892,0,0,1,488.37,126.323Z" transform="translate(125.548 184.564)" fill="#a1a1a1"/>
      <path id="Path_13" data-name="Path 13" d="M330.781,83.167l.052.051.038-.129Z" transform="translate(-99.235 380.503)" fill="#9d5e55"/>
      <path id="Path_14" data-name="Path 14" d="M330.788,85.039a7.071,7.071,0,0,0,.464-2.113C331.123,83.4,330.994,84.137,330.788,85.039Z" transform="translate(-99.152 378.554)" fill="#844741"/>
      <path id="Path_15" data-name="Path 15" d="M396.961,192.666c0,1.03-20.448,4.071-27.1,14.314S366.8,226.436,376,226.939c9.212.528,21.491,3.569,20.963,7.151-.5,3.569,6.146-4.085,9.225-3.079,3.066,1.031-2.564,13.322,5.63,16.389s6.133,10.14,27.611,12.73c21.479,2.615,31.709-12.73,39.143-16.337,7.408-3.543,27.869-5.1,40.651-1s14.843,3.054,23.025-2.062,18.927-.477,25.576-6.133c6.648-5.618,10.732-16.338,19.442-16.866,8.7-.5,22.5,1.533,27.1-5.631S617.44,199.3,625.608,199.8c8.195.5,15.359,1.546,17.923-4.574,2.538-6.146-8.194-16.389,0-17.922s16.66-14.843.4-18.914c-16.26-4.11-28.024,6.133-28.024,6.133Z" transform="translate(324.62 1263.882)" fill="#96bb9f"/>
      <path id="Path_16" data-name="Path 16" d="M435.828,222.593,592.355,174l-50.632-17.893L368.815,202.134Z" transform="translate(352.773 1248.27)" fill="#353535"/>
      <path id="Path_17" data-name="Path 17" d="M413.884,160.235c-3.08,0-16.956-7.653-39.684,0-22.741,7.7-49.85,26.632-49.85,26.632H420Z" transform="translate(-175.664 1256.9)" fill="#353535"/>
      <path id="Path_18" data-name="Path 18" d="M362.565,198.81H461.3s-56.782-40.419-102.805-42.982Z" transform="translate(230.119 1244.956)" fill="#353535"/>
      <path id="Path_19" data-name="Path 19" d="M368.815,159.679V174l67.013,22V180.139Z" transform="translate(352.773 1290.725)" fill="#161616"/>
      <path id="Path_20" data-name="Path 20" d="M374.016,221.944l156.527-50.658V157.5L374.016,206.09Z" transform="translate(414.585 1264.774)" fill="#535353"/>
      <g id="Group_30" data-name="Group 30" transform="translate(0 417.635)">
        <path id="Path_21" data-name="Path 21" d="M1076.807,1031.543a6.15,6.15,0,0,1-4.767-2.268L314.175,89.52a6.139,6.139,0,1,1,9.56-7.705l757.852,939.729a6.122,6.122,0,0,1-4.78,10Z" transform="translate(-312.81 -79.523)" fill="#ce8686"/>
      </g>
      <path id="Path_22" data-name="Path 22" d="M397.153,102.63s-3.749,6.842-8.787,15.191c-8.323,13.709-20.28,31.554-25.357,30.072-8.181-2.371-10.552-13.606-11.261-32.031-.052-1.314-.065-2.68-.065-4.1,0-2.461.065-5.128.142-7.86.761-18.3,3.621-40.638,3.621-40.638a28.491,28.491,0,0,0,1.79,3.814C363.46,77.892,378.3,91.5,397.1,102.553Z" transform="translate(149.186 144.929)" fill="#f1b5ab"/>
      <path id="Path_23" data-name="Path 23" d="M371.316,177c2.049-1.031,19.958-25.061,19.958-25.061l78.763,82.873-43.987,5.1Z" transform="translate(382.502 1198.713)" fill="#38c35a"/>
      <g id="Group_31" data-name="Group 31" transform="translate(332.179 428.882)">
        <path id="Path_24" data-name="Path 24" d="M479.593,141.958c-19.7-10.114-121.243-60.905-122.248-61.382a1.6,1.6,0,0,0-1.237-.1,1.693,1.693,0,0,0-.9.863c-1.147,2.783-28.694,68.752-10.308,106.3,5.644,11.519,15.14,19.172,28.23,22.638a67.629,67.629,0,0,0,17.523,2.345c54.05,0,89.251-67.914,89.625-68.571A1.59,1.59,0,0,0,479.593,141.958Zm-88.942,67.579a65.186,65.186,0,0,1-16.75-2.255c-12.176-3.2-21.027-10.295-26.272-21.015C331.4,153.025,353.4,94.247,357.461,84.055c12.369,6.21,98.218,49.141,119.31,59.887C471.592,153.451,438.647,209.537,390.652,209.537Z" transform="translate(-338.591 -80.396)" fill="#a6ddeb"/>
      </g>
      <path id="Path_25" data-name="Path 25" d="M562.768,159.1c.657-1.2,1.34-2.538,2.036-3.84-9.432,2.809-21.891,6.133-35.922,8.877V154.6a1.546,1.546,0,0,0-.709-1.314,1.637,1.637,0,0,0-1.508-.077l-8.465,4.226a1.5,1.5,0,0,0-.864,1.366v7.421c-25.936,4.252-55.686,6.069-81.674-.18-19.649-4.729-37.417-14.289-52.556-25.215l1.495-4.548a1.54,1.54,0,0,0-.58-1.714l-8.684-6.391a1.661,1.661,0,0,0-1.43-.206,1.643,1.643,0,0,0-.992,1.108l-.773,3.273a249.45,249.45,0,0,1-39.555-41.295c-.129,1.559-.219,3.066-.3,4.626a256.491,256.491,0,0,0,39.066,39.993L365.274,161.2a195.582,195.582,0,0,1-35.561-25.5c-.128,1.263-.206,2.538-.322,3.8a202.964,202.964,0,0,0,35.137,24.764l-2.732,11.57a1.54,1.54,0,0,0,.657,1.636l5.566,3.621a2.121,2.121,0,0,0,.8.18,1.259,1.259,0,0,0,.554-.077,1.368,1.368,0,0,0,.928-.928l3.608-11.094a232.229,232.229,0,0,0,58.031,19.778,237.6,237.6,0,0,0,46.6,4.522,256.257,256.257,0,0,0,38.795-2.963v11.248a1.533,1.533,0,0,0,.657,1.263,1.35,1.35,0,0,0,.915.3,3.66,3.66,0,0,0,.477-.077l8.5-3.066a1.581,1.581,0,0,0,.992-1.43V188.5a240.946,240.946,0,0,0,24.635-6.2l-1.443-2.77a223.344,223.344,0,0,1-23.192,5.837V167.308C541.856,164.77,553.517,161.768,562.768,159.1ZM368.019,177.4l-2.989-1.907,2.281-9.689.747-3.092L374,137.79l.773-3.273.618-2.487,5.927,4.329-.824,2.538-.979,3.067L372.1,164.847l-.979,2.886Zm64.487,8.555a228.542,228.542,0,0,1-57.645-19.674l7.267-22.367c15.229,10.861,33.074,20.306,52.8,25.06a164.314,164.314,0,0,0,38.551,4.175,276.293,276.293,0,0,0,43.858-3.8v18.128A244.551,244.551,0,0,1,432.506,185.952Zm93.348.052v11.609l-5.437,1.984V159.758l5.438-2.693V186Z" transform="translate(-115.755 475.198)" fill="#a6ddeb"/>
      <g id="Group_32" data-name="Group 32" transform="translate(625.736 895.901)">
        <path id="Path_26" data-name="Path 26" d="M381.459,169.86c-1.069,0-2.422-.631-3.93-2.667-8.955-12.408-16.634-46.809-16.131-49.322a1.509,1.509,0,0,1,1.829-1.185,1.546,1.546,0,0,1,1.211,1.688c.052,2.964,7.125,35.329,15.577,47,.928,1.314,1.443,1.417,1.443,1.417,3.518-1.585,3.788-33.9,1.121-48.317a1.528,1.528,0,0,1,1.224-1.791,1.507,1.507,0,0,1,1.778,1.211c1.739,9.354,4.148,48.665-2.977,51.706A2.684,2.684,0,0,1,381.459,169.86Z" transform="translate(-361.375 -116.643)" fill="#171717"/>
      </g>
      <path id="Path_27" data-name="Path 27" d="M397.023,102.63s-3.749,6.842-8.787,15.191c-13.362-2.461-28.565-9.728-36.541-13.915.76-18.3,3.621-40.638,3.621-40.638a28.523,28.523,0,0,0,1.79,3.814c6.223,10.81,21.066,24.416,39.865,35.471Z" transform="translate(149.317 144.929)" fill="#f5948d"/>
      <g id="Group_33" data-name="Group 33" transform="translate(70.97 454.469)">
        <path id="Path_28" data-name="Path 28" d="M421.841,234.781a3.374,3.374,0,0,1-3.286,1.056c-2.963-.979-7.176-8.323-10.243-13.439a1.266,1.266,0,0,1-.207-.322c-1.6-2.667-2.873-4.651-3.4-4.651l-.064.077c-.091,0-.206.168-.335.4l-.052.051c-2.435,4.2-10.848,32.186-17.961,32.186-2.693,0-8.349-2.641-14.933-6.751-12.073-7.4-27.379-19.417-33.641-28.024-9.7-13.3,2.564-34.788,2.564-34.788a191.084,191.084,0,0,0-7.177-36.811c-5.617-17.884-17.2-56.189-14.34-57.3a59.751,59.751,0,0,1,14.2-3.092c16.08-1.881,37.442-.76,53.419.631,2.847.245,5.553.554,8.014.8,8.671.863,14.418,1.662,14.418,1.662l-.98,84.432s18.889,36.283,19.907,44.993C428.515,222.528,425.423,231.56,421.841,234.781Z" transform="translate(-318.318 -82.382)" fill="#353535"/>
        <path id="Path_29" data-name="Path 29" d="M359.059,233.282c-4.123-19.327-15.294-46.9-21-61.343-5.295-13.181-11.763-65.981-14.456-89.431,2.847.245,5.553.554,8.014.8,8.671.863,14.418,1.662,14.418,1.662l-.979,84.432s18.889,36.283,19.907,44.993C365.733,221.029,362.641,230.061,359.059,233.282Z" transform="translate(-255.536 -80.883)" fill="#171717"/>
        <path id="Path_30" data-name="Path 30" d="M355.329,92.9c-2.435,4.2-10.849,32.185-17.961,32.185-2.693,0-8.349-2.641-14.933-6.752C339.752,109.86,352.791,95.777,355.329,92.9Z" transform="translate(-269.393 42.668)" fill="#353535"/>
      </g>
      <g id="Group_42" data-name="Group 42" transform="translate(871.972 753.007)">
        <g id="Group_37" data-name="Group 37" transform="translate(169.337 606.676)">
          <g id="Group_34" data-name="Group 34">
            <path id="Path_31" data-name="Path 31" d="M397.7,192.58a4.083,4.083,0,0,1-4.072-4.085V156.722a4.091,4.091,0,0,1,8.182,0V188.5A4.108,4.108,0,0,1,397.7,192.58Z" transform="translate(-393.629 -152.638)" fill="#4b4063"/>
          </g>
          <g id="Group_35" data-name="Group 35" transform="translate(165.205 18.927)">
            <path id="Path_32" data-name="Path 32" d="M410.548,191.446a4.1,4.1,0,0,1-4.1-4.1v-29.17a4.091,4.091,0,0,1,8.181,0v29.17A4.08,4.08,0,0,1,410.548,191.446Z" transform="translate(-406.451 -154.107)" fill="#4b4063"/>
          </g>
          <g id="Group_36" data-name="Group 36" transform="translate(333.012 15.887)">
            <path id="Path_33" data-name="Path 33" d="M423.546,194.251a4.069,4.069,0,0,1-4.071-4.1V157.942a4.078,4.078,0,0,1,8.156,0v32.211A4.08,4.08,0,0,1,423.546,194.251Z" transform="translate(-419.475 -153.871)" fill="#4b4063"/>
          </g>
        </g>
        <path id="Path_34" data-name="Path 34" d="M798.872,190.615c-2.461,7.035-4.871,18.721-7.241,33.165-3.866,23.346-7.55,54.05-10.695,84.225-1.185,11.248-2.332,22.419-3.363,33.087-4.162,43.64-6.829,79.227-6.829,79.227s-56.266,9.715-185.163,5.63q-12.543-.406-23.862-1c-109.595-5.36-141.394-21.208-141.394-24.558,0-3.3-24.867-229.408-28.668-263.681-.3-2.847-.451-4.355-.451-4.355s16.853,8.9,53.973,20.061c24.068,7.189,56.627,15.345,98.631,22.6,8.955,1.533,18.4,3.066,28.256,4.471,5.682.889,11.6,1.688,17.588,2.474C729.283,200.368,798.872,190.615,798.872,190.615Z" transform="translate(-253.076 212.937)" fill="#f79738"/>
        <path id="Path_35" data-name="Path 35" d="M798.872,190.615c-2.461,7.035-4.871,18.721-7.241,33.165-30.369,4.432-77.024,6.017-148.777.129-144.68-11.879-220.466-61.059-251.2-87.2-.3-2.847-.451-4.355-.451-4.355s16.853,8.9,53.973,20.061c24.068,7.189,56.627,15.345,98.631,22.6,8.955,1.533,18.4,3.066,28.256,4.471,5.682.889,11.6,1.688,17.588,2.474C729.283,200.368,798.872,190.615,798.872,190.615Z" transform="translate(-253.076 212.937)" fill="#ed8222"/>
        <g id="Group_38" data-name="Group 38" transform="translate(93.138 165.718)">
          <path id="Path_36" data-name="Path 36" d="M698.192,168.006l-120.753,2.139-56.28.979L387.715,132.252l145.723-13.838c4.033.7,8.891,1.726,14.341,3.041C597.487,133.386,698.192,168.006,698.192,168.006Z" transform="translate(-387.715 -118.414)" fill="#ed7d27"/>
          <path id="Path_37" data-name="Path 37" d="M577.439,170.145l-56.28.979L387.715,132.252l145.723-13.838c4.033.7,8.891,1.726,14.341,3.041C554.608,136.555,566.565,154.8,577.439,170.145Z" transform="translate(-387.715 -118.414)" fill="#d64e27"/>
        </g>
        <path id="Path_38" data-name="Path 38" d="M561.72,424.944c-109.595-5.36-141.394-21.208-141.394-24.558,0-3.569-29.119-268.036-29.119-268.036s16.853,8.9,53.973,20.061C467.226,224.488,511.754,356.013,561.72,424.944Z" transform="translate(-253.076 212.937)" fill="#ed8222"/>
        <path id="Path_39" data-name="Path 39" d="M462.6,261.324,392.4,105.552h21.479l68.033,155.772Z" transform="translate(-238.928 -105.552)" fill="#353535"/>
        <path id="Path_40" data-name="Path 40" d="M436.307,177.312a22.084,22.084,0,1,1-22.083-22.174A22.13,22.13,0,0,1,436.307,177.312Z" transform="translate(-242 483.749)" fill="#6c5964"/>
        <path id="Path_41" data-name="Path 41" d="M452.468,179.7A23.772,23.772,0,1,1,428.7,155.826,23.807,23.807,0,0,1,452.468,179.7Z" transform="translate(-90.057 491.925)" fill="#6c5964"/>
        <ellipse id="Ellipse_6" data-name="Ellipse 6" cx="23.781" cy="23.881" rx="23.781" ry="23.881" transform="translate(481.96 635.467)" fill="#6c5964"/>
        <path id="Path_42" data-name="Path 42" d="M584.521,142.607l-11.635,38s-41.295-5.888-97.806-15.1S391.524,141.267,392.5,131.41l49.077,7Z" transform="translate(-237.971 201.754)" fill="#d64e27"/>
        <path id="Path_43" data-name="Path 43" d="M433.744,132.928a9.2,9.2,0,1,1-9.2-9.47A9.323,9.323,0,0,1,433.744,132.928Z" transform="translate(33.791 107.249)" fill="#a1a1a1"/>
        <path id="Path_44" data-name="Path 44" d="M448.926,139.139c0,6.52-5.94,11.751-13.31,11.751-7.318,0-13.284-5.231-13.284-11.751,0-6.494,5.965-11.751,13.284-11.751C442.986,127.388,448.926,132.645,448.926,139.139Z" transform="translate(116.828 153.955)" fill="#a1a1a1"/>
        <path id="Path_45" data-name="Path 45" d="M443.525,140.519c0,5.051-3.775,9.135-8.439,9.135s-8.426-4.084-8.426-9.135,3.775-9.109,8.426-9.109S443.525,135.481,443.525,140.519Z" transform="translate(168.264 201.754)" fill="#a1a1a1"/>
        <path id="Path_46" data-name="Path 46" d="M386.4,119.527l66.512,151.417,60.874,8.682,20.433-111.506Z" transform="translate(-310.178 60.53)" fill="#f7991c"/>
        <path id="Path_47" data-name="Path 47" d="M396.289,236.22l174.418,5.109,32.727-118.149-186.711,1.535Z" transform="translate(-192.679 103.935)" fill="#ffc40c"/>
        <path id="Path_48" data-name="Path 48" d="M536.676,176.01,539.62,163.7,386.164,119.037l5.661,12.206Z" transform="translate(-313.009 54.703)" fill="#edd260"/>
        <path id="Path_49" data-name="Path 49" d="M397.846,140.472l187.089-3.6,6.154-14.847-190.3,6.139Z" transform="translate(-174.179 90.241)" fill="#f5e38f"/>
        <path id="Path_50" data-name="Path 50" d="M406.144,143.094,551.9,129.253V117.5L386.164,137.28Z" transform="translate(-313.009 36.459)" fill="#f5e38f"/>
        <path id="Path_51" data-name="Path 51" d="M399.027,129.253l159.6,47.159,18.421-.6L399.027,117.5Z" transform="translate(-160.136 36.459)" fill="#edd260"/>
        <path id="Path_52" data-name="Path 52" d="M380.486,112.577,500.2,344.8l18.421-3.07L397.373,105.908Z" transform="translate(-380.486 -101.327)" fill="#353535"/>
        <g id="Group_39" data-name="Group 39" transform="translate(334.541 259.314)">
          <path id="Path_53" data-name="Path 53" d="M406.451,250.358s9.56-45.7,33.422-83.9,30.343-43.15,42.789-39.981c12.472,3.17,22.69,35.2,22.69,35.2s14.315-32.031,40.238-24.558c25.923,7.525,22.5,47.054,22.5,47.054s9.561-19.069,22.522-16.35,9.535,29.338,9.535,29.338,9.573-18.27,26.619-9.135,11.583,33,11.583,33,23.862-15.681,24.545,10.913,7.472,38.035-95.487,36.824C464.47,267.571,406.451,250.358,406.451,250.358Z" transform="translate(-406.451 -125.678)" fill="#e1e1e1"/>
          <path id="Path_54" data-name="Path 54" d="M444.271,144.577a11.764,11.764,0,1,1-11.777-11.751A11.779,11.779,0,0,1,444.271,144.577Z" transform="translate(-236.586 -40.731)" fill="#a1a1a1"/>
          <path id="Path_55" data-name="Path 55" d="M451.332,150.867A18.927,18.927,0,1,1,432.4,131.953,18.932,18.932,0,0,1,451.332,150.867Z" transform="translate(-322.939 -51.106)" fill="#a1a1a1"/>
          <ellipse id="Ellipse_7" data-name="Ellipse 7" cx="10.746" cy="10.746" rx="10.746" ry="10.746" transform="translate(69.054 41.459)" fill="#a1a1a1"/>
        </g>
        <path id="Path_56" data-name="Path 56" d="M640.177,268.655c-1.185,11.248-2.332,22.419-3.362,33.087-29.158-.876-71.806-8.658-120.882-37.391-61.124-35.806-96.157-93.593-112.881-128.69,8.955,1.533,18.4,3.066,28.256,4.471,22.883,34.8,60.609,86.12,96.131,106.928C558.7,265.409,605.2,269,640.177,268.655Z" transform="translate(-112.317 252.287)" fill="#ed8222"/>
        <g id="Group_40" data-name="Group 40" transform="translate(227.259 390.281)">
          <path id="Path_57" data-name="Path 57" d="M696.42,270.679c-35.11,0-74.845-8.633-110.433-25.769-71.238-34.35-116.488-98.566-116.939-99.2a4.1,4.1,0,0,1,6.713-4.7c.438.644-235.812-32.288,113.8,96.556,69.744,25.666,148.558,33.693,181.9,3.195,8.22-7.525,11.828-17.561,10.733-29.8-2.461-26.7-26.774-57.323-43.125-67.54a4.092,4.092,0,1,1,4.329-6.945c17.407,10.875,44.168,43.408,46.925,73.738,1.366,14.946-3.119,27.251-13.348,36.592C759.553,262.755,730.113,270.679,696.42,270.679Z" transform="translate(-398.124 -135.843)" fill="#353535"/>
        </g>
        <g id="Group_41" data-name="Group 41" transform="translate(135.294 325.884)">
          <path id="Path_58" data-name="Path 58" d="M801.488,212.133c-7.576,6.262-54.385,10.926-152.6,3.376-36.051-2.719-72.269-8.607-105.343-15.539a1088.428,1088.428,0,0,1-125.868-34.2c-33.383-11.622-28.642-27.985-21.684-34.93l18.979,9.663c-1.752,9.341,28.9,21.169,118.112,37.2q22.631,4.04,50.533,8.5C711.98,206.7,801.488,201.89,801.488,201.89S809.091,205.91,801.488,212.133Z" transform="translate(-390.987 -130.845)" fill="#ffc40c"/>
          <path id="Path_59" data-name="Path 59" d="M543.541,199.97a1088.428,1088.428,0,0,1-125.868-34.2c-33.383-11.622-28.642-27.985-21.684-34.93l18.979,9.663c-1.752,9.341,28.9,21.169,118.112,37.2A181.184,181.184,0,0,0,543.541,199.97Z" transform="translate(-390.987 -130.845)" fill="#f7991c"/>
        </g>
      </g>
      <g id="Group_43" data-name="Group 43" transform="translate(473.123 65.965)">
        <path id="Path_60" data-name="Path 60" d="M530.615,125.8c-8.245,16.453-36.45,103.488-41.411,114.156-4.458,9.56-11.376,21.826-33.95,17.484a77.731,77.731,0,0,1-12.885-3.7c-2.693-.992-5.308-2.049-7.9-3.17a176.083,176.083,0,0,1-20.035-10.217c-1.275-.76-2.538-1.52-3.775-2.268-18.722-11.609-33.345-25.357-39.684-36.4a31.359,31.359,0,0,1-1.958-4.162c-6.365-16.234.85-36.347.85-36.347-6.326-1.92-11.145-7.151-14.508-13.877-8.955-18.167-7.4-47.441,3.311-53.329a7.8,7.8,0,0,1,2.281-.825,14.773,14.773,0,0,1,4.136-.412c12.807,2.989,16.634,19.713,16.634,19.713s7.331-21.491,16.737-34.917c5.94-8.478,19.146-16.3,28.114-20.937,5.282-2.757,9.109-4.368,9.109-4.368,10.037,22.664,39.375,48.317,65.788,62.1A135.088,135.088,0,0,0,530.615,125.8Z" transform="translate(-349.53 -52.229)" fill="#f1b5ab"/>
        <path id="Path_61" data-name="Path 61" d="M378.239,164.637c-.49,21.994,15.075,50.675,27.045,69.422-18.721-11.609-33.345-25.357-39.684-36.4a31.439,31.439,0,0,1-1.959-4.162c-6.365-16.234.851-36.347.851-36.347-6.326-1.92-11.145-7.151-14.508-13.877,4.523-19.017,6.957-38.769,3.311-53.329a7.79,7.79,0,0,1,2.281-.825,14.77,14.77,0,0,1,4.136-.412c12.807,2.989,16.633,19.713,16.633,19.713s7.331-21.491,16.737-34.917c5.939-8.478,19.146-16.3,28.114-20.937C395.465,83.8,378.909,132.748,378.239,164.637Z" transform="translate(-344.152 -48.2)" fill="#f5948d"/>
      </g>
      <path id="Path_62" data-name="Path 62" d="M354.453,66.745C352.6,64.13,364.864,53,382.322,56.7c17.484,3.724,22.329,18.219,22.329,18.219a214.126,214.126,0,0,0-26.774-6.3C362.635,66.011,354.453,66.745,354.453,66.745Z" transform="translate(179.891 57.96)" fill="#9d5e55"/>
      <path id="Path_63" data-name="Path 63" d="M360.97,65.679c-.708-3.633,5.206-9.985,17.858-6.313s7.6,17.008,7.6,17.008-4.639-5.863-10.964-6.958C369.165,68.294,361.37,67.779,360.97,65.679Z" transform="translate(258.875 85.414)" fill="#9d5e55"/>
      <path id="Path_64" data-name="Path 64" d="M549.51,183.333a6.231,6.231,0,0,1-1.4,1.482c-6.223,4.458-16.608,5.038-29.583,1.83a135.086,135.086,0,0,1-29.145-11.467c-26.413-13.786-55.751-39.439-65.788-62.1,0,0-27.766,11.815-37.223,25.305C376.962,151.805,369.63,173.3,369.63,173.3S365.8,156.572,353,153.583l-.129-.039s-8.117-35.252,6.017-52.375c11.209-13.567,26.477-29.055,63.933-41.9a309.739,309.739,0,0,1,33.822-9.406c63.2-14.108,89.238,29.75,94.43,46.474C556.03,112.276,558.311,171.248,549.51,183.333Z" transform="translate(135.685 -47.109)" fill="#592019"/>
      <path id="Path_65" data-name="Path 65" d="M359.374,57.106a1.125,1.125,0,0,0-2.126.734,77.609,77.609,0,0,1,2.95,13.7c-3.143,1.276-11.415,5.089-9.934,9.638,1.327,4.02,7.538,4.5,10.36,4.51a48.773,48.773,0,0,1-1.457,8.594,1.129,1.129,0,0,0,.786,1.366,1.124,1.124,0,0,0,1.379-.8C366.112,77.168,359.644,57.918,359.374,57.106ZM352.4,80.466c-.657-1.971,4.033-4.9,8.066-6.623a70.857,70.857,0,0,1,.283,9.6C358.086,83.442,353.2,82.9,352.4,80.466Z" transform="translate(130.222 62.858)" fill="#983222"/>
      <g id="Group_44" data-name="Group 44" transform="translate(567.434 158.26)">
        <path id="Path_66" data-name="Path 66" d="M387.242,121.853l-.232-.026c-.734-.167-18.193-4.046-29.66-11.6a1.117,1.117,0,1,1,1.224-1.868c9.509,6.249,23.695,10.024,27.792,11.016,3.26-17.806,13.078-58.714,13.181-59.14a1.083,1.083,0,0,1,1.34-.812,1.113,1.113,0,0,1,.824,1.34c-.1.425-10.346,43.086-13.374,60.158a1.158,1.158,0,0,1-.464.734A1.134,1.134,0,0,1,387.242,121.853Z" transform="translate(-356.85 -59.392)" fill="#983222"/>
      </g>
      <g id="Group_45" data-name="Group 45" transform="translate(555.722 225.456)">
        <path id="Path_67" data-name="Path 67" d="M385.457,75.655c-18.322,0-28.668-8.671-29.119-9.1a1.108,1.108,0,0,1-.129-1.572,1.133,1.133,0,0,1,1.572-.116c.129.1,11.956,9.947,32.224,8.388a1.089,1.089,0,0,1,1.2,1.018,1.1,1.1,0,0,1-1.005,1.2C388.562,75.6,386.99,75.655,385.457,75.655Z" transform="translate(-355.941 -64.608)" fill="#3c1515"/>
      </g>
      <path id="Path_68" data-name="Path 68" d="M360.6,67.582c-4.651,6.739-5.94,13.928-2.873,16.054s9.341-1.636,13.993-8.375,5.94-13.928,2.873-16.054S365.269,60.831,360.6,67.582Z" transform="translate(201.261 89.656)" fill="#3c1515"/>
      <path id="Path_69" data-name="Path 69" d="M364.993,68.81c-4.535,6.584-5.953,13.529-3.144,15.461s8.774-1.855,13.323-8.426c4.548-6.6,5.978-13.5,3.17-15.448S369.541,62.214,364.993,68.81Z" transform="translate(252.842 104.714)" fill="#3c1515"/>
      <path id="Path_70" data-name="Path 70" d="M376.906,91.462a77.75,77.75,0,0,1-12.884-3.7c-2.693-.992-5.308-2.049-7.9-3.17,2.951-6.069,10.694-20.216,18.876-18.206C382.266,68.141,379.277,82.894,376.906,91.462Z" transform="translate(201.941 179.714)" fill="#592019"/>
      <path id="Path_71" data-name="Path 71" d="M549.51,172.118a6.23,6.23,0,0,1-1.4,1.482c-6.223,4.458-16.608,5.038-29.583,1.83a135.089,135.089,0,0,1-29.145-11.467c-26.413-13.786-55.751-39.439-65.788-62.1,0,0-27.766,11.815-37.223,25.305-9.406,13.426-16.737,34.917-16.737,34.917S365.8,145.357,353,142.367l-.129-.039s-8.117-35.252,6.017-52.375c11.209-13.567,26.477-29.054,63.933-41.9-.709,17.046,7.64,56.4,31.374,77.8C477.963,147.263,512.842,175.081,549.51,172.118Z" transform="translate(135.685 -35.893)" fill="#461714"/>
    </g>
  </g>
</svg>
