<svg xmlns="http://www.w3.org/2000/svg" width="1623.844" height="1771.764" viewBox="0 0 1623.844 1771.764">
  <g id="Group_77" data-name="Group 77" transform="translate(-354 -4466.7)">
    <g id="Group_68" data-name="Group 68" transform="translate(354 4466.7)">
      <g id="Group_52" data-name="Group 52" transform="translate(146.773 782.608)">
        <path id="Path_73" data-name="Path 73" d="M110.707,832.913l40.551-313.606a126.249,126.249,0,0,1,48.613-84.168L397.695,284.172l107.226,340.6L258.928,899.143Z" transform="translate(-110.707 -284.172)" fill="#f6b381"/>
        <path id="Path_74" data-name="Path 74" d="M285.363,310.009,146.564,425.2a15.948,15.948,0,0,0-5.326,16.288l49.355,192.219a15.946,15.946,0,0,0,27.993,5.875l99.036-126.268a15.947,15.947,0,0,0,.674-18.754l-9.588-181.141A15.948,15.948,0,0,0,285.363,310.009Z" transform="translate(-3.105 -204.584)" fill="#f6906b"/>
      </g>
      <g id="Group_53" data-name="Group 53" transform="translate(1042.37 535.122)">
        <path id="Path_75" data-name="Path 75" d="M700.33,778.913,659.779,465.307a126.249,126.249,0,0,0-48.613-84.168L413.347,230.172l-107.226,340.6L552.109,845.143Z" transform="translate(-306.121 -230.172)" fill="#f6b381"/>
        <path id="Path_76" data-name="Path 76" d="M358.424,256.009,497.227,371.2a15.954,15.954,0,0,1,5.321,16.288L453.193,579.707a15.943,15.943,0,0,1-27.989,5.876L326.168,459.314a15.947,15.947,0,0,1-.678-18.754l9.588-181.142A15.949,15.949,0,0,1,358.424,256.009Z" transform="translate(-246.473 -150.585)" fill="#f6906b"/>
      </g>
      <path id="Path_91" data-name="Path 91" d="M116.6,0H614.324a116.6,116.6,0,0,1,116.6,116.6V1155.99a116.6,116.6,0,0,1-116.6,116.6H116.6A116.6,116.6,0,0,1,0,1155.99V116.6A116.6,116.6,0,0,1,116.6,0Z" transform="translate(438.034)" fill="#38c35a"/>
      <path id="Path_77" data-name="Path 77" d="M884.3,163.459a116.44,116.44,0,0,0-95.718-50.047H290.861a116.6,116.6,0,0,0-116.6,116.6V814.05C586.442,603.155,791.3,329.545,884.3,163.459Z" transform="translate(263.774 -113.411)" fill="#36a251"/>
      <g id="Group_54" data-name="Group 54" transform="translate(478.641 108.767)">
        <rect id="Rectangle_24" data-name="Rectangle 24" width="649.71" height="891.902" rx="2.554" transform="translate(0 91.367)" fill="#f9fbfc"/>
        <circle id="Ellipse_8" data-name="Ellipse 8" cx="38.069" cy="38.069" r="38.069" transform="translate(281.472 1092.375) rotate(-81.312)" fill="#fff"/>
        <path id="Path_78" data-name="Path 78" d="M379.4,165.426H251.055a14.143,14.143,0,0,1-14.143-14.143h0a14.142,14.142,0,0,1,14.143-14.139H379.4a14.138,14.138,0,0,1,14.139,14.139h0A14.139,14.139,0,0,1,379.4,165.426Z" transform="translate(9.627 -137.144)" fill="#fff"/>
      </g>
      <g id="Group_56" data-name="Group 56" transform="translate(716.985 275.788)">
        <circle id="Ellipse_9" data-name="Ellipse 9" cx="90.403" cy="90.403" r="90.403" fill="#353535"/>
        <g id="Group_55" data-name="Group 55" transform="translate(36.096 31.184)">
          <path id="Path_79" data-name="Path 79" d="M315.1,213.962a33.573,33.573,0,1,1-33.571-33.571A33.575,33.575,0,0,1,315.1,213.962Z" transform="translate(-225.235 -180.391)" fill="#fff"/>
          <path id="Path_80" data-name="Path 80" d="M243,252.036a55.045,55.045,0,1,1,110.09,0s-25.244,21.472-55.785,21.994S243,252.036,243,252.036Z" transform="translate(-243 -120.919)" fill="#fff"/>
        </g>
      </g>
      <g id="Group_59" data-name="Group 59" transform="translate(559.877 521.703)">
        <g id="Group_57" data-name="Group 57" transform="translate(0 0)">
          <rect id="Rectangle_25" data-name="Rectangle 25" width="509.25" height="71.242" rx="2.748" fill="#e1e1e1"/>
          <text id="NAME" transform="translate(34.377 51.103)" fill="#606565" font-size="44" font-family="Montserrat-Regular, Montserrat" letter-spacing="0.04em"><tspan x="0" y="0">NAME</tspan></text>
        </g>
        <g id="Group_58" data-name="Group 58" transform="translate(0 100.267)">
          <rect id="Rectangle_26" data-name="Rectangle 26" width="509.25" height="71.243" rx="2.748" fill="#e1e1e1"/>
          <text id="_" data-name="**********" transform="translate(34.377 58.34)" fill="#606565" font-size="42" font-family="Montserrat-Regular, Montserrat" letter-spacing="0.04em"><tspan x="0" y="0">**********</tspan></text>
        </g>
      </g>
      <g id="Group_60" data-name="Group 60" transform="translate(681.665 791.257)">
        <rect id="Rectangle_27" data-name="Rectangle 27" width="216.365" height="70.363" rx="6.525" fill="#38c35a"/>
      </g>
      <g id="Group_61" data-name="Group 61" transform="translate(681.665 910.417)">
        <rect id="Rectangle_28" data-name="Rectangle 28" width="216.365" height="70.363" rx="6.525" transform="translate(0 0)" fill="#353535"/>
      </g>
      <g id="Group_64" data-name="Group 64" transform="translate(853.213 762.713)">
        <g id="Group_62" data-name="Group 62" transform="translate(0 0)">
          <path id="Path_81" data-name="Path 81" d="M626.2,801.637l-24.157-76.5a13.013,13.013,0,0,0-7.576-8.162L503.9,680.745c-83.183-33.273-80.135-163.556-77.761-198.406a12.928,12.928,0,0,0-7.287-12.516L323.8,423.52c-32.425-15.8-58.957-58.237-58.957-94.311v-.183c0-37.765,29.061-58.178,64.585-45.368l242.3,87.39a13,13,0,0,1,6.765,5.582l127.07,213.292a13.016,13.016,0,0,0,15.271,5.7l107.4-35.551a13.011,13.011,0,0,1,16.792,9.528L895.15,794.9a13.013,13.013,0,0,1-12.7,15.839H638.607A13.013,13.013,0,0,1,626.2,801.637Z" transform="translate(-264.848 -279.831)" fill="#f6b381"/>
          <path id="Path_82" data-name="Path 82" d="M619.4,606.369C442.789,574.828,486.943,391.913,486.943,391.913L265.337,294.692c6.975,30.963,29.785,62.458,56.716,75.58l95.044,46.3h0l8.011,3.9s-.413,3.717-.821,10.042c-.032.527-.064,1.04-.1,1.6-.055.912-.105,1.911-.161,2.919-.023.49-.05.939-.073,1.453-.069,1.536-.137,3.158-.2,4.872-.014.44-.023.926-.037,1.379-.041,1.325-.078,2.676-.105,4.1-.014.683-.018,1.407-.027,2.108-.018,1.27-.037,2.553-.041,3.886,0,.8,0,1.636,0,2.461q0,1.946.023,3.969.014,1.34.037,2.713c.027,1.4.064,2.828.105,4.272.023.9.05,1.8.083,2.713.055,1.595.133,3.231.211,4.877.037.82.069,1.627.115,2.461.138,2.48.293,5,.486,7.567.009.124.023.252.032.376q.282,3.671.651,7.443c.082.839.183,1.687.27,2.53.192,1.819.39,3.648.614,5.49.124,1.027.266,2.058.4,3.089.224,1.7.458,3.4.715,5.115q.241,1.643.509,3.291.405,2.564.871,5.147c.193,1.077.38,2.154.587,3.236.348,1.82.724,3.644,1.109,5.468.206.981.4,1.962.623,2.942.5,2.259,1.054,4.524,1.627,6.778.133.536.252,1.072.389,1.6q1.086,4.166,2.337,8.3c.229.76.49,1.512.729,2.268.623,1.989,1.265,3.974,1.948,5.94.348,1,.724,1.984,1.091,2.979.628,1.719,1.274,3.433,1.957,5.133.422,1.05.862,2.09,1.3,3.13.688,1.632,1.407,3.245,2.145,4.844.476,1.031.953,2.062,1.453,3.08.793,1.627,1.627,3.227,2.47,4.812.5.94.99,1.884,1.508,2.809,1,1.788,2.067,3.534,3.144,5.271.422.674.811,1.371,1.242,2.035q2.3,3.554,4.831,6.943c.334.449.71.871,1.054,1.315,1.37,1.783,2.782,3.533,4.258,5.229.642.738,1.329,1.444,1.994,2.163,1.242,1.352,2.5,2.69,3.818,3.974.784.766,1.59,1.5,2.4,2.241,1.288,1.182,2.6,2.337,3.96,3.456.871.715,1.751,1.425,2.644,2.113,1.407,1.082,2.86,2.113,4.336,3.121.912.623,1.815,1.256,2.75,1.852,1.645,1.045,3.359,2.016,5.092,2.97.839.463,1.655.958,2.516,1.4,2.63,1.347,5.335,2.612,8.162,3.74,11.114,4.446,20.89,8.359,29.584,11.838l3.194,1.274q9.508,3.8,17.2,6.879l11.183,4.473,35.125,14.052,26.014,82.381a13.019,13.019,0,0,0,12.411,9.093h57.921L660.394,612.675Z" transform="translate(-263.096 -226.583)" fill="#f6906b"/>
          <path id="Path_83" data-name="Path 83" d="M274.749,310.315l8.2-15.945a18.1,18.1,0,0,1,22.255-8.74l40.881,14.8a18.1,18.1,0,0,1,9.95,25.253l-11.742,22.975a18.1,18.1,0,0,1-25.253,7.388l-37.334-21.838A18.1,18.1,0,0,1,274.749,310.315Z" transform="translate(-236.558 -262.931)" fill="#e3e3e6"/>
        </g>
        <g id="Group_63" data-name="Group 63" transform="translate(282.185 455.919)">
          <rect id="Rectangle_29" data-name="Rectangle 29" width="359.521" height="104.072" rx="6.537" transform="translate(18.72 56.455) rotate(-9.034)" fill="#f1e8e1"/>
          <rect id="Rectangle_30" data-name="Rectangle 30" width="215.503" height="104.072" rx="7.799" transform="matrix(0.988, -0.157, 0.157, 0.988, 18.72, 56.455)" fill="#ddd3d2"/>
          <path id="Path_84" data-name="Path 84" d="M814.862,879.406,735.468,394.112,326.419,459.15l69.122,420.256Z" transform="translate(-326.417 -326.274)" fill="#212121"/>
          <path id="Path_85" data-name="Path 85" d="M645.58,850.574,581.953,464.2a73.586,73.586,0,0,0-84.228-61.12L326.419,430.32l69.122,420.254Z" transform="translate(-326.419 -297.442)" fill="#353535"/>
        </g>
      </g>
      <g id="Group_67" data-name="Group 67" transform="translate(0 1010.199)">
        <g id="Group_65" data-name="Group 65" transform="translate(99.521)">
          <path id="Path_86" data-name="Path 86" d="M369.667,855.637l24.157-76.5a13.008,13.008,0,0,1,7.58-8.162l90.566-36.229c83.183-33.273,80.131-163.557,77.757-198.406a12.927,12.927,0,0,1,7.287-12.516l95.044-46.3c32.43-15.8,58.961-58.237,58.961-94.311v-.183c0-37.764-29.066-58.178-64.585-45.368l-242.3,87.39a13.012,13.012,0,0,0-6.769,5.582L290.3,643.922a13.013,13.013,0,0,1-15.271,5.7l-107.4-35.551a13.014,13.014,0,0,0-16.8,9.528L100.713,848.9a13.013,13.013,0,0,0,12.7,15.839H357.256A13.013,13.013,0,0,0,369.667,855.637Z" transform="translate(-100.397 -333.831)" fill="#f6b381"/>
          <path id="Path_87" data-name="Path 87" d="M219.182,660.369c176.609-31.541,132.455-214.456,132.455-214.456l221.61-97.221c-6.98,30.963-29.79,62.458-56.72,75.58l-95.044,46.3h0l-8.016,3.9s.417,3.717.82,10.041c.032.527.069,1.04.1,1.6.055.912.105,1.911.156,2.919.023.49.05.939.073,1.453q.11,2.3.2,4.872c.014.44.023.926.037,1.379.041,1.324.078,2.677.105,4.1.014.683.023,1.407.032,2.108.018,1.27.032,2.553.041,3.887V509.3c0,1.3-.009,2.622-.027,3.969-.009.894-.018,1.8-.037,2.713-.027,1.4-.064,2.828-.105,4.271-.023.9-.046,1.8-.078,2.713-.06,1.595-.133,3.231-.215,4.876-.037.82-.069,1.627-.114,2.461-.138,2.479-.293,5-.486,7.567-.009.124-.023.252-.032.376q-.282,3.671-.651,7.443c-.078.839-.179,1.687-.27,2.53q-.282,2.729-.614,5.49c-.124,1.027-.261,2.058-.4,3.089-.225,1.7-.458,3.4-.715,5.115q-.241,1.643-.5,3.291-.413,2.564-.875,5.147c-.188,1.077-.38,2.154-.587,3.235-.344,1.82-.724,3.644-1.109,5.468-.206.981-.4,1.962-.623,2.942-.5,2.26-1.054,4.524-1.622,6.779-.137.536-.257,1.073-.394,1.6q-1.086,4.166-2.337,8.3c-.229.761-.49,1.512-.729,2.268-.623,1.989-1.265,3.974-1.948,5.94-.348,1-.724,1.984-1.086,2.979-.632,1.719-1.279,3.433-1.962,5.133-.417,1.05-.857,2.09-1.3,3.13q-1.031,2.447-2.14,4.844c-.477,1.031-.958,2.062-1.457,3.08-.788,1.627-1.622,3.226-2.47,4.812-.5.94-.985,1.884-1.5,2.81-1.008,1.788-2.067,3.534-3.149,5.271-.417.674-.811,1.37-1.242,2.035q-2.3,3.554-4.826,6.943c-.339.449-.71.871-1.054,1.315-1.375,1.783-2.782,3.533-4.258,5.229-.646.738-1.334,1.443-2,2.163-1.242,1.352-2.5,2.69-3.818,3.974-.779.765-1.59,1.5-2.4,2.241-1.288,1.182-2.6,2.337-3.96,3.456-.866.715-1.746,1.425-2.644,2.113-1.407,1.082-2.86,2.113-4.331,3.121-.912.623-1.815,1.256-2.755,1.851-1.645,1.045-3.359,2.017-5.087,2.97-.843.463-1.654.958-2.521,1.4-2.626,1.347-5.335,2.612-8.162,3.74l-29.584,11.838-3.19,1.274q-9.515,3.8-17.2,6.879l-11.187,4.473L240.15,720.013l-26.014,82.381a13.014,13.014,0,0,1-12.411,9.093H143.8l34.382-144.812Z" transform="translate(55.134 -280.583)" fill="#f6906b"/>
          <path id="Path_88" data-name="Path 88" d="M294.767,364.315l-8.2-15.944a18.1,18.1,0,0,0-22.251-8.74l-40.881,14.8a18.1,18.1,0,0,0-9.954,25.253l11.742,22.975a18.1,18.1,0,0,0,25.253,7.388l37.334-21.838A18.091,18.091,0,0,0,294.767,364.315Z" transform="translate(297.66 -316.931)" fill="#e3e3e6"/>
        </g>
        <g id="Group_66" data-name="Group 66" transform="translate(0 455.919)">
          <rect id="Rectangle_31" data-name="Rectangle 31" width="359.521" height="104.072" rx="6.537" transform="translate(412.894 159.236) rotate(-170.966)" fill="#f1e8e1"/>
          <rect id="Rectangle_32" data-name="Rectangle 32" width="215.503" height="104.072" rx="7.799" transform="translate(412.894 159.236) rotate(-170.965)" fill="#ddd3d2"/>
          <path id="Path_89" data-name="Path 89" d="M498.22,685.92l28.416-172.77L117.587,448.112,78.682,685.92Z" transform="translate(-78.682 -380.274)" fill="#353535"/>
          <path id="Path_90" data-name="Path 90" d="M365.666,657.088,394.081,484.32l-171.3-27.237a73.581,73.581,0,0,0-84.228,61.12L115.677,657.088Z" transform="translate(53.874 -351.442)" fill="#212121"/>
        </g>
      </g>
    </g>
  </g>
</svg>
