<?xml version="1.0" standalone="no"?>
<!DOCTYPE svg PUBLIC "-//W3C//DTD SVG 20010904//EN"
 "http://www.w3.org/TR/2001/REC-SVG-20010904/DTD/svg10.dtd">
<svg version="1.0" xmlns="http://www.w3.org/2000/svg"
 width="153.000000pt" height="153.000000pt" viewBox="0 0 153.000000 153.000000"
 preserveAspectRatio="xMidYMid meet">
<metadata>
Created by potrace 1.14, written by Peter Selinger 2001-2017
</metadata>
<g transform="translate(0.000000,153.000000) scale(0.100000,-0.100000)"
fill="#000000" stroke="none">
<path d="M745 1419 c-56 -14 -590 -213 -597 -223 -6 -9 -5 -18 7 -76 3 -14 7
-43 10 -65 3 -22 15 -101 26 -175 10 -74 24 -169 30 -210 13 -91 25 -112 96
-170 30 -25 65 -54 77 -65 58 -52 95 -84 149 -128 32 -27 93 -80 135 -118 42
-38 86 -69 96 -69 10 0 58 35 105 78 47 43 144 128 216 188 71 60 138 117 147
126 10 10 25 18 33 18 8 0 15 7 15 15 0 8 4 15 10 15 11 0 31 68 35 120 7 78
18 156 23 165 3 5 7 25 8 45 6 93 17 180 31 234 12 49 12 61 1 71 -7 7 -96 43
-198 80 -102 38 -228 83 -280 103 -130 47 -141 50 -175 41z"/>
</g>
</svg>
